
        <svg xmlns="http://www.w3.org/2000/svg" xmlns:xlink="http://www.w3.org/1999/xlink" version="1.1" width="3162.263241741332" height="758.3937158349693" viewBox="0 0 3162.263241741332 758.3937158349693">
			
			<g transform="scale(8.113162087066575) translate(10, 10)">
				<defs id="SvgjsDefs1902"/><g id="SvgjsG1903" featureKey="hmhgWD-0" transform="matrix(0.9606240403354045,0,0,0.9606240403354045,-1.4149992590524194,-0.29320280764579465)" fill="#000"><g xmlns="http://www.w3.org/2000/svg"><path d="M31.697,46.568h8.661v6.864h-8.661v8.661h-6.863v-8.661h-8.661v-6.864h8.661v-8.66h6.863V46.568z M96.544,52.605H85.232   l-2.619-5.017c-0.361-0.697-1.092-1.11-1.891-1.062c-0.783,0.054-1.464,0.567-1.729,1.306L75.579,57.3l-2.826-13.947   c-0.173-0.852-0.882-1.494-1.747-1.578c-0.865-0.087-1.688,0.401-2.023,1.203l-3.719,8.833h-5.559c-1.096,0-1.982,0.89-1.982,1.983   c0,1.097,0.887,1.981,1.982,1.981h6.875c0.798,0,1.52-0.479,1.826-1.213l1.736-4.122l2.955,14.584   c0.176,0.871,0.911,1.521,1.799,1.584c0.047,0.005,0.096,0.005,0.144,0.005c0.832,0,1.579-0.52,1.864-1.312l4.285-11.875   l1.08,2.073c0.342,0.655,1.021,1.065,1.76,1.065h12.515c1.097,0,1.981-0.887,1.981-1.98S97.641,52.605,96.544,52.605z    M84.029,58.555h2.601l-10.263,12.58c-1.297,1.717-3.348,2.827-5.661,2.827c-2.315,0-4.366-1.11-5.659-2.827L53.939,57.669   c-3.299,11.06-13.543,19.125-25.675,19.125C13.468,76.794,1.473,64.798,1.473,50c0-14.797,11.995-26.793,26.791-26.793   c7.759,0,14.744,3.302,19.637,8.571c2.751-3.49,7.007-5.739,11.796-5.739c4.305,0,8.176,1.819,10.912,4.718   c2.738-2.899,6.609-4.718,10.912-4.718c8.297,0,15.021,6.726,15.021,15.02c0,3.549-1.236,6.803-3.294,9.373h0.007l-0.087,0.104   c-0.021,0.03-0.045,0.058-0.069,0.086h-6.666l-2.062-3.948c-0.685-1.316-2.035-2.132-3.522-2.132c-0.082,0-0.166,0.001-0.26,0.009   c-1.57,0.105-2.932,1.132-3.465,2.612l-1.012,2.803l-1.418-7.004c-0.348-1.717-1.752-2.985-3.488-3.157   c-1.752-0.174-3.381,0.809-4.055,2.406l-3.207,7.62h-4.241c-2.188,0-3.966,1.78-3.966,3.966s1.777,3.965,3.966,3.965h6.875   c1.065,0,2.062-0.425,2.789-1.146l1.782,8.808c0.354,1.736,1.832,3.039,3.588,3.169c0.102,0.007,0.203,0.011,0.301,0.011   c1.668,0,3.167-1.055,3.729-2.619l2.948-8.17C82.377,58.286,83.182,58.555,84.029,58.555z M51.1,54.227l-2.844-3.449   c-0.1-0.111-0.191-0.227-0.282-0.342l-0.152-0.182h0.014c-1.974-2.543-3.161-5.725-3.161-9.195c0-2.165,0.467-4.217,1.292-6.077   c-4.266-5.019-10.614-8.218-17.702-8.218C15.453,26.764,5.028,37.187,5.028,50c0,12.812,10.425,23.236,23.236,23.236   C39.633,73.236,49.104,65.023,51.1,54.227z"/></g></g><g id="SvgjsG1904" featureKey="1RRcwp-0" transform="matrix(2.1231148385791605,0,0,2.1231148385791605,112.15075386209233,18.705029706682097)" fill="#000"><path d="M13.8 20 l-2.88 0 l-1.46 -3.84 l-4.72 0 l-1.48 3.84 l-2.86 0 l5.48 -14.24 l2.42 0 z M5.78 13.52 l2.64 0 l-1.32 -3.46 z M18.8 20.08 c-0.28 0 -0.58 -0.04 -0.94 -0.1 c-1 -0.2 -1.94 -0.64 -2.68 -1.3 l-0.3 -0.24 l1.5 -1.66 l0.28 0.26 c0.88 0.74 1.6 0.88 2.06 0.88 c0.34 0 0.58 -0.04 0.82 -0.16 c0.3 -0.12 0.44 -0.32 0.44 -0.6 c0 -0.24 -0.14 -0.54 -1.32 -0.74 c-1.08 -0.22 -1.76 -0.44 -2.08 -0.62 c-0.42 -0.24 -0.76 -0.56 -1 -0.96 s-0.36 -0.84 -0.36 -1.34 c0 -0.52 0.16 -1.02 0.48 -1.48 c0.26 -0.38 0.64 -0.68 1.2 -0.96 c0.46 -0.22 0.98 -0.32 1.6 -0.32 c0.22 0 0.44 0.02 0.64 0.04 c0.88 0.14 1.76 0.52 2.48 1.08 l0.3 0.24 l-1.42 1.64 l-0.28 -0.22 c-0.7 -0.56 -1.3 -0.66 -1.66 -0.66 c-0.26 0 -0.5 0.04 -0.72 0.14 c-0.26 0.14 -0.4 0.36 -0.4 0.5 c0 0.28 0.2 0.48 1.24 0.72 c1.36 0.32 1.8 0.48 2.08 0.6 c0.56 0.32 0.8 0.58 1 0.84 c0.3 0.42 0.44 0.94 0.44 1.5 c0 0.58 -0.16 1.1 -0.46 1.52 s-0.7 0.78 -1.28 1.06 c-0.46 0.22 -1.06 0.34 -1.66 0.34 z M33.56 20 l-3.12 0 l-3.18 -4.06 l-0.82 0.84 l0 3.22 l-2.6 0 l0 -14.68 l2.6 0 l0 7.94 l2.52 -2.42 l3.54 0 l-3.44 3.28 z M48.10000000000001 20 l-2.66 0 l0 -9.52 l-3.72 5.08 l-3.7 -5.08 l0 9.52 l-2.66 0 l0 -14.24 l2.5 0 l3.86 5.3 l3.86 -5.3 l2.52 0 l0 14.24 z M55.040000000000006 20.22 l-0.02 0 c-0.58 0 -1.18 -0.14 -1.74 -0.4 c-0.52 -0.22 -1 -0.58 -1.44 -1.04 c-0.7 -0.76 -1.12 -1.76 -1.22 -2.8 c-0.02 -0.18 -0.04 -0.36 -0.04 -0.56 c0 -0.4 0.06 -0.82 0.16 -1.24 c0.18 -0.8 0.56 -1.54 1.1 -2.1 c0.4 -0.44 0.86 -0.78 1.44 -1.06 c0.54 -0.26 1.14 -0.38 1.76 -0.38 c0.64 0 1.22 0.12 1.76 0.38 c0.6 0.28 1.08 0.64 1.44 1.06 c0.52 0.56 0.92 1.28 1.12 2.1 c0.1 0.38 0.14 0.78 0.14 1.24 l0 0.46 l-6.72 0 l0.02 0.14 c0.26 1.24 1.2 2.14 2.24 2.14 l0.02 0 c0.58 -0.04 1.22 -0.4 1.6 -0.72 l0.22 -0.18 l1.66 1.44 l-0.3 0.26 c-0.22 0.2 -0.5 0.44 -0.8 0.6 l-0.02 0 c-0.72 0.42 -1.5 0.64 -2.38 0.66 z M55.040000000000006 12.719999999999999 c-0.78 0 -1.56 0.54 -1.98 1.38 l-0.08 0.16 l4.14 0 l-0.08 -0.16 c-0.46 -0.86 -1.22 -1.38 -2 -1.38 z M65.38000000000001 20.18 c-1.26 0 -2.46 -0.48 -3.38 -1.38 c-0.9 -0.92 -1.4 -2.12 -1.4 -3.38 s0.5 -2.46 1.4 -3.38 c0.9 -0.9 2.1 -1.38 3.38 -1.38 c0.84 0 1.6 0.3 2.26 0.9 l0.1 0.08 l0 -6.32 l2.42 0 l0 14.68 l-2.42 0 l0 -0.72 l-0.1 0.1 c-0.72 0.7 -1.54 0.8 -2.26 0.8 z M65.38000000000001 13 c-1.28 0 -2.36 1.12 -2.36 2.42 c0 1.32 1.08 2.42 2.36 2.42 s2.36 -1.1 2.36 -2.42 c0 -1.3 -1.08 -2.42 -2.36 -2.42 z M75.97999999999999 20 l-2.6 0 l0 -9.16 l2.6 0 l0 9.16 z M74.67999999999999 9.74 c-0.86 0 -1.56 -0.7 -1.56 -1.54 c0 -0.42 0.16 -0.8 0.46 -1.08 c0.3 -0.3 0.68 -0.46 1.1 -0.46 c0.84 0 1.54 0.7 1.54 1.54 s-0.7 1.54 -1.54 1.54 z M84.14 20.12 c-0.46 0 -0.94 -0.06 -1.44 -0.16 c-1.48 -0.3 -2.92 -1.02 -4.18 -2.12 l-0.38 -0.34 l1.76 -2 l0.38 0.34 c0.92 0.8 1.94 1.34 2.94 1.54 l0.02 0 c0.3 0.06 0.6 0.1 0.9 0.1 c0.5 0 0.96 -0.1 1.34 -0.28 c0.48 -0.2 1.04 -0.64 1.04 -1.46 c0 -0.44 -0.22 -0.78 -0.68 -1.06 c-0.56 -0.34 -1.32 -0.52 -1.86 -0.62 c-0.24 -0.04 -2.28 -0.46 -3.22 -0.98 c-0.62 -0.38 -1.1 -0.86 -1.44 -1.42 c-0.34 -0.58 -0.5 -1.22 -0.5 -1.92 c0 -0.76 0.24 -1.52 0.7 -2.22 c0.44 -0.58 1.04 -1.06 1.76 -1.4 s1.52 -0.52 2.38 -0.52 c0.34 0 0.7 0.04 1.06 0.08 c1.32 0.24 2.62 0.84 3.76 1.8 l0.38 0.32 l-1.7 2.06 l-0.38 -0.32 c-1.3 -1.06 -2.42 -1.3 -3.14 -1.3 c-0.46 0 -0.88 0.1 -1.24 0.26 c-0.56 0.26 -0.92 0.74 -0.92 1.22 c0 0.44 0.16 0.72 0.54 0.98 s0.96 0.46 1.88 0.66 c0.12 0.02 0.28 0.06 0.44 0.1 c0.84 0.16 1.96 0.4 2.74 0.86 c0.68 0.36 1.2 0.86 1.56 1.44 s0.54 1.26 0.54 1.98 c0 0.9 -0.24 1.7 -0.72 2.38 c-0.42 0.58 -1.04 1.08 -1.86 1.48 c-0.7 0.36 -1.48 0.52 -2.46 0.52 z M95.46 20.2 c-1.28 0 -2.48 -0.5 -3.38 -1.38 l-0.02 -0.02 c-0.88 -0.9 -1.38 -2.1 -1.38 -3.38 s0.5 -2.5 1.38 -3.4 c0.9 -0.88 2.1 -1.38 3.4 -1.38 c1.32 0 2.52 0.48 3.38 1.38 c0.2 0.2 0.36 0.38 0.5 0.56 l0.24 0.36 l-1.96 1.46 l-0.28 -0.38 c-0.48 -0.64 -1.18 -1.04 -1.88 -1.04 c-1.26 0 -2.34 1.12 -2.34 2.44 s1.08 2.44 2.34 2.44 c0.7 0 1.4 -0.4 1.88 -1.08 l0.26 -0.36 l2.04 1.46 l-0.3 0.38 c-0.04 0.06 -0.1 0.12 -0.16 0.18 c-0.1 0.12 -0.22 0.26 -0.34 0.38 c-0.88 0.88 -2.08 1.38 -3.38 1.38 z M105.17999999999999 20.18 c-1.26 0 -2.46 -0.48 -3.38 -1.38 c-0.9 -0.92 -1.4 -2.12 -1.4 -3.38 s0.5 -2.46 1.4 -3.38 c0.9 -0.9 2.1 -1.38 3.38 -1.38 c0.84 0 1.6 0.3 2.26 0.9 l0.1 0.08 l0 -0.8 l2.42 0 l0 9.16 l-2.42 0 l0 -0.72 l-0.1 0.1 c-0.72 0.7 -1.54 0.8 -2.26 0.8 z M105.17999999999999 13 c-1.28 0 -2.36 1.12 -2.36 2.42 c0 1.32 1.08 2.42 2.36 2.42 s2.36 -1.1 2.36 -2.42 c0 -1.3 -1.08 -2.42 -2.36 -2.42 z M121.33999999999999 20 l-2.52 0 l0 -4.9 c0 -1.08 -0.86 -1.92 -1.94 -1.92 c-1.04 0 -1.94 0.86 -1.94 1.92 l0 4.9 l-2.5 0 l0 -9.16 l2.5 0 l0 0.66 c0.62 -0.62 1.28 -0.84 1.94 -0.84 c1.2 0 2.32 0.46 3.16 1.28 c0.84 0.86 1.3 1.98 1.3 3.16 l0 4.9 z"/></g>
			</g>
		</svg>
	